<?xml version="1.0" standalone="no"?><!-- Generator: Gravit.io --><svg xmlns="http://www.w3.org/2000/svg" xmlns:xlink="http://www.w3.org/1999/xlink" style="isolation:isolate" viewBox="0 0 100 100" width="100" height="100"><defs><clipPath id="_clipPath_9wpYfIdGcUabRXEt1ouxJDgxj9HY1H8o"><rect width="100" height="100"/></clipPath></defs><g clip-path="url(#_clipPath_9wpYfIdGcUabRXEt1ouxJDgxj9HY1H8o)"><clipPath id="_clipPath_mm5KIM3sEUvCzF2rlHDjKH9Y2jYLTcrr"><rect x="0" y="0" width="100" height="100" transform="matrix(1,0,0,1,0,0)" fill="rgb(255,255,255)"/></clipPath><g clip-path="url(#_clipPath_mm5KIM3sEUvCzF2rlHDjKH9Y2jYLTcrr)"><g id="Group"><g id="icon"><path d=" M 9.5 0.598 L 9.5 95.617 C 9.5 99.916 11.66 100.664 14.32 97.288 L 85.68 6.716 C 88.34 3.339 87.01 0.598 82.712 0.598 L 9.5 0.598 L 9.5 0.598 Z " fill="rgb(24,223,221)"/><path d=" M 9.5 0.598 L 50 52.002 L 42.212 61.348 L 9.5 0.598 L 9.5 0.598 Z " fill="rgb(0,0,0)" fill-opacity="0.2"/><path d=" M 9.5 0.598 L 82.712 0.598 C 87.01 0.598 90.5 4.088 90.5 8.386 L 90.5 95.617 C 90.5 99.916 88.34 100.664 85.68 97.288 L 9.5 0.598 L 9.5 0.598 Z " fill="rgb(71,85,225)"/></g></g></g></g></svg>